<svg xmlns="http://www.w3.org/2000/svg" version="1.1" xmlns:xlink="http://www.w3.org/1999/xlink" xmlns:svgjs="http://svgjs.com/svgjs" width="100" height="90"><svg xmlns="http://www.w3.org/2000/svg" xmlns:xlink="http://www.w3.org/1999/xlink" width="100" zoomAndPan="magnify" viewBox="0 0 375 374.999991" height="90" preserveAspectRatio="xMidYMid meet" version="1.0"><defs><g></g><clipPath id="SvgjsClipPath1000"><path d="M 33.507812 200.605469 L 350.742188 200.605469 L 350.742188 237.679688 L 33.507812 237.679688 Z M 33.507812 200.605469 " clip-rule="nonzero"></path></clipPath></defs><g fill="#3b3937" fill-opacity="1"><g transform="translate(176.410085, 273.355588)"><g><path d="M 0.1875 0 L 0.1875 -1.8125 L 6 -1.8125 C 9.757812 -1.8125 12.726562 -2.84375 14.90625 -4.90625 C 17.082031 -6.96875 19.082031 -10.601562 20.90625 -15.8125 L 61.265625 -129.796875 L 72.90625 -129.796875 L 117.078125 -12.359375 C 118.648438 -8.359375 120.285156 -5.597656 121.984375 -4.078125 C 123.679688 -2.566406 125.925781 -1.8125 128.71875 -1.8125 L 130.53125 -1.8125 L 130.53125 0 L 77.8125 0 L 77.8125 -1.8125 L 83.625 -1.8125 C 87.75 -1.8125 90.71875 -2.328125 92.53125 -3.359375 C 94.351562 -4.390625 95.265625 -6.238281 95.265625 -8.90625 C 95.265625 -9.875 95.140625 -11.054688 94.890625 -12.453125 C 94.648438 -13.847656 94.226562 -15.394531 93.625 -17.09375 L 82.71875 -47.265625 L 34.171875 -47.265625 L 24 -18.71875 C 23.394531 -16.90625 22.910156 -15.300781 22.546875 -13.90625 C 22.179688 -12.507812 22 -11.207031 22 -10 C 22 -6.96875 23.238281 -4.84375 25.71875 -3.625 C 28.207031 -2.414062 32.238281 -1.8125 37.8125 -1.8125 L 44.359375 -1.8125 L 44.359375 0 Z M 34.71875 -49.078125 L 81.984375 -49.078125 L 69.265625 -83.984375 C 67.203125 -89.679688 65.203125 -95.410156 63.265625 -101.171875 C 61.328125 -106.929688 59.75 -112.234375 58.53125 -117.078125 C 56.84375 -111.984375 55.175781 -107.132812 53.53125 -102.53125 C 51.894531 -97.925781 50.050781 -92.65625 48 -86.71875 Z M 34.71875 -49.078125 "></path></g></g></g><g fill="#3b3937" fill-opacity="1"><g transform="translate(81.508835, 216.929235)"><g><path d="M 29.09375 0 L 29.09375 -1.8125 L 34.546875 -1.8125 C 38.910156 -1.8125 42.269531 -2.75 44.625 -4.625 C 46.988281 -6.507812 48.171875 -9.753906 48.171875 -14.359375 L 48.171875 -55.078125 L 14.90625 -118.34375 C 12.96875 -121.976562 11.117188 -124.492188 9.359375 -125.890625 C 7.597656 -127.285156 5.328125 -127.984375 2.546875 -127.984375 L -0.734375 -127.984375 L -0.734375 -129.796875 L 52.359375 -129.796875 L 52.359375 -127.984375 L 46.359375 -127.984375 C 40.179688 -127.984375 37.09375 -126.226562 37.09375 -122.71875 C 37.09375 -120.289062 38.300781 -116.65625 40.71875 -111.8125 L 57.078125 -79.8125 C 59.503906 -75.320312 61.65625 -71.140625 63.53125 -67.265625 C 65.414062 -63.390625 67.082031 -59.875 68.53125 -56.71875 C 70.113281 -59.988281 71.929688 -63.773438 73.984375 -68.078125 C 76.046875 -72.378906 78.289062 -76.773438 80.71875 -81.265625 L 94.359375 -108.71875 C 97.265625 -114.289062 98.71875 -118.53125 98.71875 -121.4375 C 98.71875 -125.800781 94.597656 -127.984375 86.359375 -127.984375 L 77.625 -127.984375 L 77.625 -129.796875 L 118.34375 -129.796875 L 118.34375 -127.984375 L 113.625 -127.984375 C 110.71875 -127.984375 108.265625 -126.953125 106.265625 -124.890625 C 104.265625 -122.828125 101.867188 -119.132812 99.078125 -113.8125 L 69.453125 -54.90625 L 69.453125 -14.359375 C 69.453125 -9.753906 70.628906 -6.507812 72.984375 -4.625 C 75.347656 -2.75 78.710938 -1.8125 83.078125 -1.8125 L 88.53125 -1.8125 L 88.53125 0 Z M 29.09375 0 "></path></g></g></g><g clip-path="url(#84361bf462)"><path fill="#f4f4f4" d="M 33.507812 200.605469 L 350.742188 200.605469 L 350.742188 237.679688 L 33.507812 237.679688 Z M 33.507812 200.605469 " fill-opacity="1" fill-rule="nonzero"></path></g><g fill="#967f71" fill-opacity="1"><g transform="translate(117.707289, 227.874491)"><g><path d="M 4.5625 0 L 1.453125 -10.203125 C 1.359375 -10.515625 1.234375 -10.726562 1.078125 -10.84375 C 0.921875 -10.96875 0.675781 -11.03125 0.34375 -11.03125 L 0.140625 -11.03125 L 0.140625 -11.1875 L 4.453125 -11.1875 L 4.453125 -11.03125 L 4.09375 -11.03125 C 3.769531 -11.03125 3.53125 -10.984375 3.375 -10.890625 C 3.226562 -10.796875 3.15625 -10.632812 3.15625 -10.40625 C 3.15625 -10.238281 3.195312 -10.003906 3.28125 -9.703125 L 4.953125 -4.1875 C 5.097656 -3.71875 5.222656 -3.238281 5.328125 -2.75 C 5.441406 -2.257812 5.550781 -1.757812 5.65625 -1.25 C 5.71875 -1.550781 5.800781 -1.921875 5.90625 -2.359375 C 6.019531 -2.796875 6.140625 -3.265625 6.265625 -3.765625 L 8.140625 -11.078125 L 8.796875 -11.078125 L 11.078125 -4.296875 C 11.296875 -3.648438 11.484375 -3.035156 11.640625 -2.453125 C 11.804688 -1.878906 11.929688 -1.414062 12.015625 -1.0625 C 12.066406 -1.289062 12.113281 -1.476562 12.15625 -1.625 C 12.195312 -1.769531 12.238281 -1.929688 12.28125 -2.109375 C 12.320312 -2.285156 12.390625 -2.539062 12.484375 -2.875 L 14.234375 -9.453125 C 14.328125 -9.796875 14.375 -10.070312 14.375 -10.28125 C 14.375 -10.5625 14.285156 -10.753906 14.109375 -10.859375 C 13.941406 -10.972656 13.675781 -11.03125 13.3125 -11.03125 L 12.9375 -11.03125 L 12.9375 -11.1875 L 15.984375 -11.1875 L 15.984375 -11.03125 L 15.6875 -11.03125 C 15.363281 -11.03125 15.113281 -10.941406 14.9375 -10.765625 C 14.769531 -10.585938 14.625 -10.269531 14.5 -9.8125 L 11.890625 0 L 10.953125 0 L 7.859375 -9.359375 L 5.53125 0 Z M 4.5625 0 "></path></g></g></g><g fill="#967f71" fill-opacity="1"><g transform="translate(134.111719, 227.874491)"><g><path d="M 4.578125 0.15625 C 3.410156 0.15625 2.5 -0.21875 1.84375 -0.96875 C 1.1875 -1.71875 0.859375 -2.773438 0.859375 -4.140625 C 0.859375 -5.597656 1.160156 -6.695312 1.765625 -7.4375 C 2.367188 -8.1875 3.226562 -8.5625 4.34375 -8.5625 C 5.351562 -8.5625 6.144531 -8.242188 6.71875 -7.609375 C 7.300781 -6.984375 7.59375 -6.050781 7.59375 -4.8125 L 7.59375 -4.4375 L 2.375 -4.4375 C 2.382812 -2.832031 2.5625 -1.691406 2.90625 -1.015625 C 3.25 -0.335938 3.820312 0 4.625 0 C 5.207031 0 5.695312 -0.160156 6.09375 -0.484375 C 6.5 -0.804688 6.757812 -1.285156 6.875 -1.921875 C 7 -1.898438 7.09375 -1.835938 7.15625 -1.734375 C 7.21875 -1.628906 7.25 -1.519531 7.25 -1.40625 C 7.25 -1.195312 7.148438 -0.96875 6.953125 -0.71875 C 6.753906 -0.476562 6.457031 -0.269531 6.0625 -0.09375 C 5.675781 0.0703125 5.179688 0.15625 4.578125 0.15625 Z M 2.375 -4.59375 L 6.015625 -4.59375 C 6.015625 -5.957031 5.882812 -6.929688 5.625 -7.515625 C 5.363281 -8.109375 4.925781 -8.40625 4.3125 -8.40625 C 3.675781 -8.40625 3.207031 -8.109375 2.90625 -7.515625 C 2.601562 -6.929688 2.425781 -5.957031 2.375 -4.59375 Z M 2.375 -4.59375 "></path></g></g></g><g fill="#967f71" fill-opacity="1"><g transform="translate(142.494115, 227.874491)"><g><path d="M 5.609375 0.15625 C 4.929688 0.15625 4.390625 -0.0351562 3.984375 -0.421875 C 3.585938 -0.804688 3.320312 -1.398438 3.1875 -2.203125 L 3.15625 -2.203125 L 3.15625 0 L 0.28125 0 L 0.28125 -0.15625 L 0.40625 -0.15625 C 0.863281 -0.15625 1.191406 -0.25 1.390625 -0.4375 C 1.585938 -0.625 1.6875 -0.929688 1.6875 -1.359375 L 1.6875 -10.53125 C 1.6875 -10.96875 1.585938 -11.28125 1.390625 -11.46875 C 1.191406 -11.65625 0.863281 -11.75 0.40625 -11.75 L 0.359375 -11.75 L 0.359375 -11.90625 L 3.171875 -11.90625 L 3.171875 -9.03125 C 3.171875 -8.757812 3.171875 -8.363281 3.171875 -7.84375 C 3.171875 -7.320312 3.160156 -6.78125 3.140625 -6.21875 L 3.171875 -6.21875 C 3.316406 -7.007812 3.585938 -7.597656 3.984375 -7.984375 C 4.378906 -8.367188 4.929688 -8.5625 5.640625 -8.5625 C 7.722656 -8.5625 8.765625 -7.113281 8.765625 -4.21875 C 8.765625 -2.78125 8.492188 -1.691406 7.953125 -0.953125 C 7.410156 -0.210938 6.628906 0.15625 5.609375 0.15625 Z M 5.34375 -0.078125 C 6.019531 -0.078125 6.503906 -0.394531 6.796875 -1.03125 C 7.085938 -1.664062 7.234375 -2.734375 7.234375 -4.234375 C 7.234375 -5.703125 7.085938 -6.75 6.796875 -7.375 C 6.503906 -8.007812 6.015625 -8.328125 5.328125 -8.328125 C 4.566406 -8.328125 4.015625 -7.976562 3.671875 -7.28125 C 3.335938 -6.59375 3.171875 -5.570312 3.171875 -4.21875 C 3.171875 -2.8125 3.347656 -1.769531 3.703125 -1.09375 C 4.054688 -0.414062 4.601562 -0.078125 5.34375 -0.078125 Z M 5.34375 -0.078125 "></path></g></g></g><g fill="#967f71" fill-opacity="1"><g transform="translate(152.114292, 227.874491)"><g><path d="M 0.390625 -4.125 L 0.390625 -4.4375 L 4.46875 -4.4375 L 4.46875 -4.125 Z M 0.390625 -4.125 "></path></g></g></g><g fill="#967f71" fill-opacity="1"><g transform="translate(156.971382, 227.874491)"><g><path d="M 0.59375 0 L 0.59375 -0.15625 L 0.796875 -0.15625 C 1.648438 -0.15625 2.078125 -0.53125 2.078125 -1.28125 L 2.078125 -9.96875 C 2.078125 -10.675781 1.648438 -11.03125 0.796875 -11.03125 L 0.59375 -11.03125 L 0.59375 -11.1875 L 5.390625 -11.1875 C 6.992188 -11.1875 8.242188 -10.703125 9.140625 -9.734375 C 10.046875 -8.765625 10.5 -7.390625 10.5 -5.609375 C 10.5 -4.460938 10.304688 -3.46875 9.921875 -2.625 C 9.546875 -1.789062 8.976562 -1.144531 8.21875 -0.6875 C 7.457031 -0.226562 6.515625 0 5.390625 0 Z M 3.671875 -0.15625 L 5.03125 -0.15625 C 6.332031 -0.15625 7.28125 -0.585938 7.875 -1.453125 C 8.46875 -2.316406 8.765625 -3.703125 8.765625 -5.609375 C 8.765625 -7.515625 8.46875 -8.894531 7.875 -9.75 C 7.28125 -10.601562 6.335938 -11.03125 5.046875 -11.03125 L 3.671875 -11.03125 Z M 3.671875 -0.15625 "></path></g></g></g><g fill="#967f71" fill-opacity="1"><g transform="translate(168.362041, 227.874491)"><g><path d="M 4.578125 0.15625 C 3.410156 0.15625 2.5 -0.21875 1.84375 -0.96875 C 1.1875 -1.71875 0.859375 -2.773438 0.859375 -4.140625 C 0.859375 -5.597656 1.160156 -6.695312 1.765625 -7.4375 C 2.367188 -8.1875 3.226562 -8.5625 4.34375 -8.5625 C 5.351562 -8.5625 6.144531 -8.242188 6.71875 -7.609375 C 7.300781 -6.984375 7.59375 -6.050781 7.59375 -4.8125 L 7.59375 -4.4375 L 2.375 -4.4375 C 2.382812 -2.832031 2.5625 -1.691406 2.90625 -1.015625 C 3.25 -0.335938 3.820312 0 4.625 0 C 5.207031 0 5.695312 -0.160156 6.09375 -0.484375 C 6.5 -0.804688 6.757812 -1.285156 6.875 -1.921875 C 7 -1.898438 7.09375 -1.835938 7.15625 -1.734375 C 7.21875 -1.628906 7.25 -1.519531 7.25 -1.40625 C 7.25 -1.195312 7.148438 -0.96875 6.953125 -0.71875 C 6.753906 -0.476562 6.457031 -0.269531 6.0625 -0.09375 C 5.675781 0.0703125 5.179688 0.15625 4.578125 0.15625 Z M 2.375 -4.59375 L 6.015625 -4.59375 C 6.015625 -5.957031 5.882812 -6.929688 5.625 -7.515625 C 5.363281 -8.109375 4.925781 -8.40625 4.3125 -8.40625 C 3.675781 -8.40625 3.207031 -8.109375 2.90625 -7.515625 C 2.601562 -6.929688 2.425781 -5.957031 2.375 -4.59375 Z M 2.375 -4.59375 "></path></g></g></g><g fill="#967f71" fill-opacity="1"><g transform="translate(176.744437, 227.874491)"><g><path d="M 3.75 0 L 1.046875 -7.40625 C 0.929688 -7.726562 0.800781 -7.945312 0.65625 -8.0625 C 0.519531 -8.1875 0.320312 -8.25 0.0625 -8.25 L 0.0625 -8.40625 L 3.984375 -8.40625 L 3.984375 -8.25 L 3.609375 -8.25 C 3.273438 -8.25 3.023438 -8.203125 2.859375 -8.109375 C 2.703125 -8.023438 2.625 -7.867188 2.625 -7.640625 C 2.625 -7.472656 2.679688 -7.226562 2.796875 -6.90625 L 4.03125 -3.453125 C 4.164062 -3.078125 4.28125 -2.742188 4.375 -2.453125 C 4.476562 -2.160156 4.578125 -1.867188 4.671875 -1.578125 C 4.773438 -1.296875 4.890625 -0.957031 5.015625 -0.5625 C 5.109375 -0.851562 5.191406 -1.113281 5.265625 -1.34375 C 5.347656 -1.582031 5.453125 -1.878906 5.578125 -2.234375 L 7.15625 -6.8125 C 7.207031 -6.976562 7.25 -7.125 7.28125 -7.25 C 7.3125 -7.375 7.328125 -7.488281 7.328125 -7.59375 C 7.328125 -7.84375 7.234375 -8.015625 7.046875 -8.109375 C 6.867188 -8.203125 6.582031 -8.25 6.1875 -8.25 L 5.671875 -8.25 L 5.671875 -8.40625 L 9.03125 -8.40625 L 9.03125 -8.25 L 8.59375 -8.25 C 8.300781 -8.25 8.066406 -8.15625 7.890625 -7.96875 C 7.710938 -7.789062 7.546875 -7.472656 7.390625 -7.015625 L 4.984375 0 Z M 3.75 0 "></path></g></g></g><g fill="#967f71" fill-opacity="1"><g transform="translate(185.816225, 227.874491)"><g><path d="M 4.578125 0.15625 C 3.410156 0.15625 2.5 -0.21875 1.84375 -0.96875 C 1.1875 -1.71875 0.859375 -2.773438 0.859375 -4.140625 C 0.859375 -5.597656 1.160156 -6.695312 1.765625 -7.4375 C 2.367188 -8.1875 3.226562 -8.5625 4.34375 -8.5625 C 5.351562 -8.5625 6.144531 -8.242188 6.71875 -7.609375 C 7.300781 -6.984375 7.59375 -6.050781 7.59375 -4.8125 L 7.59375 -4.4375 L 2.375 -4.4375 C 2.382812 -2.832031 2.5625 -1.691406 2.90625 -1.015625 C 3.25 -0.335938 3.820312 0 4.625 0 C 5.207031 0 5.695312 -0.160156 6.09375 -0.484375 C 6.5 -0.804688 6.757812 -1.285156 6.875 -1.921875 C 7 -1.898438 7.09375 -1.835938 7.15625 -1.734375 C 7.21875 -1.628906 7.25 -1.519531 7.25 -1.40625 C 7.25 -1.195312 7.148438 -0.96875 6.953125 -0.71875 C 6.753906 -0.476562 6.457031 -0.269531 6.0625 -0.09375 C 5.675781 0.0703125 5.179688 0.15625 4.578125 0.15625 Z M 2.375 -4.59375 L 6.015625 -4.59375 C 6.015625 -5.957031 5.882812 -6.929688 5.625 -7.515625 C 5.363281 -8.109375 4.925781 -8.40625 4.3125 -8.40625 C 3.675781 -8.40625 3.207031 -8.109375 2.90625 -7.515625 C 2.601562 -6.929688 2.425781 -5.957031 2.375 -4.59375 Z M 2.375 -4.59375 "></path></g></g></g><g fill="#967f71" fill-opacity="1"><g transform="translate(194.198621, 227.874491)"><g><path d="M 0.203125 0 L 0.203125 -0.15625 L 0.40625 -0.15625 C 0.863281 -0.15625 1.191406 -0.25 1.390625 -0.4375 C 1.585938 -0.625 1.6875 -0.929688 1.6875 -1.359375 L 1.6875 -10.53125 C 1.6875 -10.96875 1.585938 -11.28125 1.390625 -11.46875 C 1.191406 -11.65625 0.863281 -11.75 0.40625 -11.75 L 0.203125 -11.75 L 0.203125 -11.90625 L 3.171875 -11.90625 L 3.171875 -1.4375 C 3.171875 -0.976562 3.269531 -0.648438 3.46875 -0.453125 C 3.664062 -0.253906 3.992188 -0.15625 4.453125 -0.15625 L 4.65625 -0.15625 L 4.65625 0 Z M 0.203125 0 "></path></g></g></g><g fill="#967f71" fill-opacity="1"><g transform="translate(199.055711, 227.874491)"><g><path d="M 4.5 0.15625 C 3.375 0.15625 2.484375 -0.203125 1.828125 -0.921875 C 1.179688 -1.640625 0.859375 -2.738281 0.859375 -4.21875 C 0.859375 -5.675781 1.171875 -6.765625 1.796875 -7.484375 C 2.421875 -8.203125 3.335938 -8.5625 4.546875 -8.5625 C 5.671875 -8.5625 6.554688 -8.203125 7.203125 -7.484375 C 7.859375 -6.765625 8.1875 -5.675781 8.1875 -4.21875 C 8.1875 -2.738281 7.867188 -1.640625 7.234375 -0.921875 C 6.609375 -0.203125 5.695312 0.15625 4.5 0.15625 Z M 4.53125 0 C 5.289062 0 5.832031 -0.320312 6.15625 -0.96875 C 6.488281 -1.613281 6.65625 -2.695312 6.65625 -4.21875 C 6.65625 -5.71875 6.488281 -6.789062 6.15625 -7.4375 C 5.832031 -8.082031 5.285156 -8.40625 4.515625 -8.40625 C 3.742188 -8.40625 3.191406 -8.082031 2.859375 -7.4375 C 2.535156 -6.789062 2.375 -5.71875 2.375 -4.21875 C 2.375 -2.695312 2.539062 -1.613281 2.875 -0.96875 C 3.207031 -0.320312 3.757812 0 4.53125 0 Z M 4.53125 0 "></path></g></g></g><g fill="#967f71" fill-opacity="1"><g transform="translate(208.096165, 227.874491)"><g><path d="M 0.28125 3.765625 L 0.28125 3.609375 L 0.40625 3.609375 C 0.863281 3.609375 1.191406 3.515625 1.390625 3.328125 C 1.585938 3.140625 1.6875 2.828125 1.6875 2.390625 L 1.6875 -7.015625 C 1.6875 -7.453125 1.585938 -7.765625 1.390625 -7.953125 C 1.191406 -8.148438 0.863281 -8.25 0.40625 -8.25 L 0.203125 -8.25 L 0.203125 -8.40625 L 3.140625 -8.40625 L 3.140625 -6.21875 L 3.171875 -6.21875 C 3.316406 -7.007812 3.585938 -7.597656 3.984375 -7.984375 C 4.378906 -8.367188 4.929688 -8.5625 5.640625 -8.5625 C 7.722656 -8.5625 8.765625 -7.113281 8.765625 -4.21875 C 8.765625 -2.78125 8.492188 -1.691406 7.953125 -0.953125 C 7.410156 -0.210938 6.628906 0.15625 5.609375 0.15625 C 4.929688 0.15625 4.390625 -0.0351562 3.984375 -0.421875 C 3.585938 -0.804688 3.320312 -1.398438 3.1875 -2.203125 L 3.15625 -2.203125 C 3.164062 -1.941406 3.171875 -1.679688 3.171875 -1.421875 C 3.171875 -1.160156 3.171875 -0.898438 3.171875 -0.640625 L 3.171875 2.3125 C 3.171875 2.78125 3.269531 3.113281 3.46875 3.3125 C 3.664062 3.507812 3.992188 3.609375 4.453125 3.609375 L 4.5 3.609375 L 4.5 3.765625 Z M 5.34375 -0.078125 C 6.019531 -0.078125 6.503906 -0.394531 6.796875 -1.03125 C 7.085938 -1.664062 7.234375 -2.734375 7.234375 -4.234375 C 7.234375 -5.703125 7.085938 -6.75 6.796875 -7.375 C 6.503906 -8.007812 6.015625 -8.328125 5.328125 -8.328125 C 4.566406 -8.328125 4.015625 -7.976562 3.671875 -7.28125 C 3.335938 -6.59375 3.171875 -5.570312 3.171875 -4.21875 C 3.171875 -2.8125 3.347656 -1.769531 3.703125 -1.09375 C 4.054688 -0.414062 4.601562 -0.078125 5.34375 -0.078125 Z M 5.34375 -0.078125 "></path></g></g></g><g fill="#967f71" fill-opacity="1"><g transform="translate(217.716343, 227.874491)"><g><path d="M 0.4375 0 L 0.4375 -0.15625 L 0.5625 -0.15625 C 1.019531 -0.15625 1.347656 -0.25 1.546875 -0.4375 C 1.742188 -0.625 1.84375 -0.929688 1.84375 -1.359375 L 1.84375 -7.015625 C 1.84375 -7.453125 1.742188 -7.765625 1.546875 -7.953125 C 1.347656 -8.148438 1.019531 -8.25 0.5625 -8.25 L 0.515625 -8.25 L 0.515625 -8.40625 L 3.3125 -8.40625 L 3.3125 -6.90625 L 3.34375 -6.90625 C 3.488281 -7.363281 3.679688 -7.710938 3.921875 -7.953125 C 4.171875 -8.191406 4.445312 -8.351562 4.75 -8.4375 C 5.050781 -8.519531 5.359375 -8.5625 5.671875 -8.5625 C 6.222656 -8.5625 6.722656 -8.421875 7.171875 -8.140625 C 7.617188 -7.867188 7.945312 -7.367188 8.15625 -6.640625 L 8.1875 -6.640625 C 8.3125 -7.203125 8.5 -7.617188 8.75 -7.890625 C 9 -8.171875 9.273438 -8.351562 9.578125 -8.4375 C 9.878906 -8.519531 10.175781 -8.5625 10.46875 -8.5625 C 12.238281 -8.5625 13.125 -7.519531 13.125 -5.4375 L 13.125 -1.4375 C 13.125 -0.976562 13.222656 -0.648438 13.421875 -0.453125 C 13.617188 -0.253906 13.945312 -0.15625 14.40625 -0.15625 L 14.453125 -0.15625 L 14.453125 0 L 11.640625 0 L 11.640625 -5.75 C 11.640625 -6.613281 11.519531 -7.242188 11.28125 -7.640625 C 11.039062 -8.046875 10.65625 -8.25 10.125 -8.25 C 9.519531 -8.25 9.054688 -8.019531 8.734375 -7.5625 C 8.421875 -7.113281 8.265625 -6.472656 8.265625 -5.640625 L 8.265625 -1.4375 C 8.265625 -0.976562 8.363281 -0.648438 8.5625 -0.453125 C 8.757812 -0.253906 9.085938 -0.15625 9.546875 -0.15625 L 9.59375 -0.15625 L 9.59375 0 L 6.78125 0 L 6.78125 -5.75 C 6.78125 -6.613281 6.65625 -7.242188 6.40625 -7.640625 C 6.164062 -8.046875 5.769531 -8.25 5.21875 -8.25 C 3.957031 -8.25 3.328125 -7.304688 3.328125 -5.421875 L 3.328125 -1.4375 C 3.328125 -0.976562 3.425781 -0.648438 3.625 -0.453125 C 3.820312 -0.253906 4.148438 -0.15625 4.609375 -0.15625 L 4.65625 -0.15625 L 4.65625 0 Z M 0.4375 0 "></path></g></g></g><g fill="#967f71" fill-opacity="1"><g transform="translate(232.522639, 227.874491)"><g><path d="M 4.578125 0.15625 C 3.410156 0.15625 2.5 -0.21875 1.84375 -0.96875 C 1.1875 -1.71875 0.859375 -2.773438 0.859375 -4.140625 C 0.859375 -5.597656 1.160156 -6.695312 1.765625 -7.4375 C 2.367188 -8.1875 3.226562 -8.5625 4.34375 -8.5625 C 5.351562 -8.5625 6.144531 -8.242188 6.71875 -7.609375 C 7.300781 -6.984375 7.59375 -6.050781 7.59375 -4.8125 L 7.59375 -4.4375 L 2.375 -4.4375 C 2.382812 -2.832031 2.5625 -1.691406 2.90625 -1.015625 C 3.25 -0.335938 3.820312 0 4.625 0 C 5.207031 0 5.695312 -0.160156 6.09375 -0.484375 C 6.5 -0.804688 6.757812 -1.285156 6.875 -1.921875 C 7 -1.898438 7.09375 -1.835938 7.15625 -1.734375 C 7.21875 -1.628906 7.25 -1.519531 7.25 -1.40625 C 7.25 -1.195312 7.148438 -0.96875 6.953125 -0.71875 C 6.753906 -0.476562 6.457031 -0.269531 6.0625 -0.09375 C 5.675781 0.0703125 5.179688 0.15625 4.578125 0.15625 Z M 2.375 -4.59375 L 6.015625 -4.59375 C 6.015625 -5.957031 5.882812 -6.929688 5.625 -7.515625 C 5.363281 -8.109375 4.925781 -8.40625 4.3125 -8.40625 C 3.675781 -8.40625 3.207031 -8.109375 2.90625 -7.515625 C 2.601562 -6.929688 2.425781 -5.957031 2.375 -4.59375 Z M 2.375 -4.59375 "></path></g></g></g><g fill="#967f71" fill-opacity="1"><g transform="translate(240.905035, 227.874491)"><g><path d="M 0.4375 0 L 0.4375 -0.15625 L 0.5625 -0.15625 C 1.039062 -0.15625 1.375 -0.257812 1.5625 -0.46875 C 1.75 -0.675781 1.84375 -1.050781 1.84375 -1.59375 L 1.84375 -6.828125 C 1.84375 -7.359375 1.753906 -7.726562 1.578125 -7.9375 C 1.398438 -8.144531 1.070312 -8.25 0.59375 -8.25 L 0.515625 -8.25 L 0.515625 -8.40625 L 3.3125 -8.40625 L 3.3125 -6.921875 L 3.34375 -6.921875 C 3.476562 -7.398438 3.675781 -7.757812 3.9375 -8 C 4.207031 -8.238281 4.492188 -8.390625 4.796875 -8.453125 C 5.109375 -8.523438 5.394531 -8.5625 5.65625 -8.5625 C 6.582031 -8.5625 7.273438 -8.316406 7.734375 -7.828125 C 8.191406 -7.335938 8.421875 -6.554688 8.421875 -5.484375 L 8.421875 -1.59375 C 8.421875 -1.050781 8.503906 -0.675781 8.671875 -0.46875 C 8.835938 -0.257812 9.144531 -0.15625 9.59375 -0.15625 L 9.671875 -0.15625 L 9.671875 0 L 6.9375 0 L 6.9375 -6.015625 C 6.9375 -6.691406 6.804688 -7.242188 6.546875 -7.671875 C 6.296875 -8.109375 5.867188 -8.328125 5.265625 -8.328125 C 4.773438 -8.328125 4.390625 -8.191406 4.109375 -7.921875 C 3.828125 -7.660156 3.625 -7.320312 3.5 -6.90625 C 3.382812 -6.5 3.328125 -6.070312 3.328125 -5.625 L 3.328125 -1.59375 C 3.328125 -1.050781 3.414062 -0.675781 3.59375 -0.46875 C 3.769531 -0.257812 4.097656 -0.15625 4.578125 -0.15625 L 4.65625 -0.15625 L 4.65625 0 Z M 0.4375 0 "></path></g></g></g><g fill="#967f71" fill-opacity="1"><g transform="translate(251.010912, 227.874491)"><g><path d="M 3.765625 0.15625 C 2.960938 0.15625 2.378906 -0.0195312 2.015625 -0.375 C 1.660156 -0.738281 1.484375 -1.367188 1.484375 -2.265625 L 1.484375 -8.25 L 0.296875 -8.25 L 0.296875 -8.40625 C 1.035156 -8.40625 1.597656 -8.546875 1.984375 -8.828125 C 2.390625 -9.109375 2.664062 -9.609375 2.8125 -10.328125 L 2.96875 -10.328125 L 2.96875 -8.40625 L 5.15625 -8.40625 L 5.15625 -8.25 L 2.96875 -8.25 L 2.96875 -1.6875 C 2.96875 -0.601562 3.378906 -0.0625 4.203125 -0.0625 C 4.472656 -0.0625 4.789062 -0.125 5.15625 -0.25 L 5.15625 -0.09375 C 5.019531 -0.03125 4.816406 0.0234375 4.546875 0.078125 C 4.273438 0.128906 4.015625 0.15625 3.765625 0.15625 Z M 3.765625 0.15625 "></path></g></g></g></svg><style>@media (prefers-color-scheme: light) { :root { filter: none; } }
</style></svg>