<?xml version="1.0" standalone="no"?>
<!DOCTYPE svg PUBLIC "-//W3C//DTD SVG 20010904//EN"
 "http://www.w3.org/TR/2001/REC-SVG-20010904/DTD/svg10.dtd">
<svg version="1.0" xmlns="http://www.w3.org/2000/svg"
 width="896.000000pt" height="896.000000pt" viewBox="0 0 896.000000 896.000000"
 preserveAspectRatio="xMidYMid meet">
<metadata>
Created by potrace 1.14, written by Peter Selinger 2001-2017
</metadata>
<g transform="translate(0.000000,896.000000) scale(0.100000,-0.100000)"
fill="#000000" stroke="none">
<path d="M150 8040 c0 -16 3 -30 8 -31 4 0 47 -2 97 -3 50 -1 108 -6 130 -11
94 -19 198 -95 265 -195 13 -19 27 -37 30 -40 3 -3 11 -16 18 -30 7 -14 20
-38 30 -55 18 -29 69 -126 215 -405 39 -74 81 -153 93 -175 13 -22 49 -92 81
-155 32 -63 60 -117 63 -120 3 -3 25 -43 49 -90 42 -83 126 -244 201 -385 20
-38 65 -124 100 -190 60 -114 114 -217 203 -385 22 -41 65 -124 97 -185 31
-60 89 -171 129 -247 l71 -136 0 -744 0 -744 -1015 0 -1015 1 0 -712 c0 -563
3 -713 13 -714 6 0 1105 -1 2442 -1 1630 0 2432 -4 2436 -11 6 -9 -4 -42 -31
-102 -7 -16 -19 -50 -25 -75 -1 -3 -4 -12 -7 -20 -3 -8 -13 -35 -21 -60 -9
-25 -22 -58 -28 -75 -7 -16 -13 -37 -15 -45 -2 -8 -9 -30 -18 -50 -8 -19 -44
-118 -79 -220 -75 -213 -141 -370 -159 -378 -5 -2 -8 -10 -8 -18 0 -8 -4 -14
-10 -14 -5 0 -10 -6 -10 -14 0 -16 -114 -135 -148 -154 -90 -50 -160 -64 -357
-67 -71 -2 -134 -3 -138 -4 -9 -1 -4 -47 6 -58 4 -4 386 -7 847 -8 l840 0 0
35 0 35 -187 1 c-293 2 -417 19 -523 70 -44 21 -121 88 -118 103 1 3 -5 20
-12 36 -17 40 -19 156 -4 221 11 51 50 184 61 214 3 8 7 20 9 25 3 13 73 206
81 225 3 8 7 20 8 25 2 6 24 69 50 140 26 72 56 155 67 186 l20 56 1093 0
1094 1 40 -112 c21 -61 56 -156 76 -211 77 -210 117 -320 119 -330 2 -5 8 -23
15 -40 30 -72 63 -227 67 -310 4 -84 2 -94 -26 -152 -28 -57 -36 -64 -94 -93
-35 -17 -77 -33 -93 -35 -15 -2 -48 -7 -72 -10 -23 -4 -118 -8 -210 -9 l-166
-2 -3 -34 -3 -35 1008 0 c697 0 1010 3 1015 11 4 5 5 19 3 30 -2 10 -4 22 -4
25 -1 3 -22 6 -48 6 -111 0 -167 14 -244 64 -91 58 -187 227 -271 474 -5 17
-13 39 -18 50 -16 36 -82 210 -85 220 -1 6 -8 24 -14 40 -7 17 -14 35 -15 40
-4 13 -16 45 -27 70 -10 25 -60 156 -63 170 -2 6 -8 24 -15 40 -7 17 -18 46
-25 65 -8 19 -16 42 -20 51 -7 15 31 17 441 17 246 0 465 1 486 1 l37 1 0 713
0 712 -753 -1 -753 0 -30 80 c-16 44 -28 83 -26 88 1 4 -2 8 -8 8 -6 0 -9 3
-8 8 2 4 -5 25 -14 47 -9 22 -58 150 -108 285 -50 135 -94 254 -99 265 -5 11
-21 54 -36 95 -16 41 -39 102 -52 135 -13 33 -26 67 -28 75 -6 20 -53 150 -64
175 -5 11 -19 47 -31 80 -12 33 -26 69 -30 80 -14 32 -122 319 -124 330 -2 6
-8 24 -15 40 -6 17 -20 53 -30 80 -40 105 -84 222 -102 271 l-20 50 -223 0
-223 0 -18 -50 c-9 -28 -23 -64 -30 -81 -6 -16 -32 -88 -56 -160 -24 -71 -46
-132 -49 -135 -5 -5 -10 -21 -14 -45 -1 -5 -4 -14 -7 -20 -11 -17 -43 -120
-41 -127 1 -5 -3 -8 -10 -8 -6 0 -9 -3 -5 -6 3 -4 0 -21 -8 -39 -7 -19 -11
-36 -7 -39 3 -3 -1 -6 -8 -6 -7 0 -11 -3 -8 -6 4 -3 -1 -22 -9 -42 -9 -20 -38
-100 -64 -177 -27 -77 -52 -147 -56 -155 -3 -8 -7 -19 -9 -25 -1 -5 -16 -50
-34 -100 -39 -112 -37 -108 -39 -118 0 -4 -8 -21 -16 -37 -9 -17 -13 -30 -11
-30 3 0 -4 -20 -15 -45 -11 -25 -22 -54 -24 -63 -3 -15 -75 -218 -92 -262 -8
-20 -8 -21 -18 -55 -4 -16 -11 -34 -15 -40 -3 -5 -19 -46 -33 -90 -15 -44 -40
-114 -55 -155 l-28 -75 -1277 -1 -1277 0 0 45 c-1 26 -1 358 -1 739 0 648 1
696 18 738 10 24 21 44 26 44 4 0 7 9 7 19 0 11 3 21 8 23 8 3 332 648 333
663 0 6 6 17 13 25 7 8 75 141 152 295 76 154 143 283 147 286 5 3 8 8 7 10
-1 4 88 189 116 239 7 14 25 50 39 80 50 108 321 636 348 677 15 24 27 45 27
47 0 3 27 45 60 95 91 138 184 224 265 246 17 4 37 10 45 12 8 3 67 6 130 8
63 2 120 4 126 4 6 1 11 15 12 31 l1 30 -785 0 -784 0 2 -30 c1 -16 5 -30 8
-31 3 0 109 -3 235 -5 127 -2 246 -5 265 -7 67 -8 190 -46 190 -59 0 -4 4 -8
10 -8 18 0 62 -44 81 -83 19 -37 26 -122 14 -178 -21 -104 -53 -185 -166 -415
-43 -88 -79 -166 -79 -172 0 -5 -3 -12 -7 -14 -9 -3 -73 -134 -72 -144 0 -4
-3 -10 -8 -13 -7 -5 -90 -170 -95 -189 -1 -4 -8 -13 -15 -20 -7 -7 -13 -19
-13 -25 -1 -14 -328 -665 -340 -677 -5 -5 -29 -53 -161 -325 -29 -60 -53 -113
-51 -117 1 -5 -3 -8 -8 -8 -6 0 -10 -5 -10 -10 0 -6 -26 -63 -57 -128 -32 -64
-58 -120 -59 -124 -1 -5 -2 -11 -3 -15 -2 -14 -40 51 -47 79 -3 16 -10 28 -15
28 -5 0 -9 5 -9 12 0 16 -258 545 -316 648 -49 88 -124 235 -124 246 0 7 -3
14 -7 16 -5 2 -36 57 -69 123 -34 66 -120 235 -192 375 -325 637 -392 775
-392 805 0 8 -4 17 -10 20 -5 3 -10 17 -10 31 0 14 -4 33 -9 43 -14 25 -19
120 -9 158 14 52 79 106 153 127 55 15 114 20 262 20 l163 1 0 33 0 32 -1020
0 -1020 0 0 -30z m5970 -2781 c21 -79 48 -169 58 -199 11 -30 19 -57 19 -60 1
-16 113 -348 203 -600 28 -80 53 -149 54 -155 4 -13 15 -44 26 -70 5 -11 14
-38 21 -60 6 -22 16 -46 22 -52 5 -7 6 -13 2 -13 -4 0 -3 -6 3 -12 6 -7 10
-16 10 -21 1 -8 28 -87 42 -122 15 -35 60 -166 60 -174 0 -4 -259 -7 -575 -7
-471 0 -575 3 -575 13 0 8 7 29 15 49 8 19 14 35 14 37 0 1 2 9 5 17 85 236
102 285 111 320 2 8 15 43 29 78 13 34 22 62 19 62 -3 0 0 6 6 13 6 8 12 22
14 33 4 19 7 29 30 89 7 17 12 32 13 35 0 3 3 12 6 20 3 8 13 38 23 65 9 28
19 57 22 65 4 8 7 17 7 20 1 3 11 32 23 65 38 103 95 268 98 279 1 6 5 18 8
26 12 29 51 135 52 140 2 14 90 269 92 266 2 -1 21 -68 43 -147z"/>
</g>
</svg>
