
        <svg xmlns="http://www.w3.org/2000/svg" xmlns:xlink="http://www.w3.org/1999/xlink" version="1.1" width="210" 
        height="110" viewBox="0 0 3162.0201430448105 653.1629941960366">
			<rect fill="#f6f6f6" width="3162.0201430448105" height="653.1629941960366"/>
			<g transform="scale(8.101007152240548) translate(10, 10)">
				<defs id="SvgjsDefs1250"></defs><g id="SvgjsG1251" featureKey="symbolFeature-0" transform="matrix(0.7965860597439545,0,0,0.7965860597439545,-1.7150498793101412,-9.702418450780138)" fill="#111111"><g xmlns="http://www.w3.org/2000/svg"><circle fill="none" cx="49.651" cy="72.829" r="1.847"></circle><path fill="none" d="M6.159,65.021h86.985V15.996H6.159V65.021z M56.586,46.886l11.51-4.933v-0.062l-11.51-4.932V33.67   l14.891,6.825v2.854l-14.891,6.825V46.886z M51.652,28.924h3.133l-6.639,22.49h-3.132h-0.001L51.652,28.924z M27.825,43.256v-2.668   l14.89-6.918v3.289l-11.26,4.932v0.062l11.26,4.933v3.288L27.825,43.256L27.825,43.256z"></path><path d="M94.318,12.18h-43.88h-1.495H5.063c-1.563,0-2.91,1.188-2.91,2.752v54.092v0.188v5.013v0.313   c0,1.563,1.347,2.877,2.91,2.877h35.146c-0.041,0.896-0.321,4.753-2.155,6.623c-1.445,1.474-3.453,2.854-2.669,3.563   c0.19,0.436,1.091,0.688,3.14,0.688c4.521,0,9.416,0,11.208,0c0.453,0,0.707,0,0.707,0c1.791,0,6.688,0,11.207,0   c2.334,0,3.15-0.382,3.158-0.953h-0.08v-0.188h-0.082c-0.104-0.771-1.662-1.907-2.84-3.105c-1.834-1.87-2.113-5.727-2.154-6.623   h34.674c1.564,0,2.83-1.313,2.83-2.877v-0.314v-5.012v-0.189V14.934C97.15,13.368,95.883,12.18,94.318,12.18z M49.651,74.676   c-1.021,0-1.847-0.824-1.847-1.846s0.826-1.848,1.847-1.848c1.02,0,1.847,0.826,1.847,1.848   C51.499,73.852,50.671,74.676,49.651,74.676z M93.145,65.021H6.159V15.996h86.985V65.021z"></path><polygon points="42.715,46.886 31.455,41.953 31.455,41.891 42.715,36.959 42.715,33.67 27.825,40.588 27.825,43.256    27.825,43.257 42.715,50.174  "></polygon><polygon points="48.146,51.414 54.785,28.924 51.652,28.924 45.013,51.414 45.014,51.414  "></polygon><polygon points="71.477,40.495 56.586,33.67 56.586,36.959 68.096,41.891 68.096,41.953 56.586,46.886 56.586,50.174    71.477,43.349  "></polygon></g></g><g id="SvgjsG1252" featureKey="nameFeature-0" transform="matrix(1.1160922526848254,0,0,1.1160922526848254,96.00000053219426,2.276549809536913)" fill="#111111"><path d="M10.8 11.399999999999999 l1.28 0 l-5.4 10.84 l0 17.76 l-1.28 0 l0 -17.76 l-5.4 -10.84 l1.28 0 l4.76 9.52 z M21.875 12.600000000000001 l-4.6 0 l0 7.88 l4.6 0 l0 1.2 l-4.6 0 l0 17.12 l4.6 0 l0 1.2 l-5.76 0 l0 -28.6 l5.76 0 l0 1.2 z M40.349999999999994 11.399999999999999 l1.2 0 l-7.12 28.6 l-1.4 0 l-7.12 -28.6 l1.2 0 l6.6 26.6 z M55.34499999999999 11.399999999999999 l1.16 0 l0 28.6 l-1.16 0 l0 -18.32 l-8.6 0 l0 18.32 l-1.16 0 l0 -28.6 l1.16 0 l0 9.04 l8.6 0 l0 -9.04 z M66.3 12.600000000000001 l-4.6 0 l0 7.88 l4.6 0 l0 1.2 l-4.6 0 l0 17.12 l4.6 0 l0 1.2 l-5.76 0 l0 -28.6 l5.76 0 l0 1.2 z M83.455 11.399999999999999 l1.16 0 l0 28.6 l-1.16 0 l0 -5.16 c-0.2 -9.16 -4.88 -17.2 -11.96 -22.04 l0 27.2 l-1.16 0 l0 -28.6 l1.16 0 c5.72 3.64 10 9.28 11.96 15.96 l0 -15.96 z M89.80999999999999 11.399999999999999 l0 28.6 l-1.16 0 l0 -28.6 l1.16 0 z M95.005 11.399999999999999 l0 28.6 l-1.16 0 l0 -28.6 l1.16 0 z M123.875 40 l-1.12 -4.52 l-10.96 0 l-1.12 4.52 l-1.2 0 l7.08 -28.6 l1.44 0 l7.08 28.6 l-1.2 0 z M112.07499999999999 34.28 l10.4 0 l-5.2 -20.88 z M130.26999999999998 11.399999999999999 l0 28.6 l-1.16 0 l0 -28.6 l1.16 0 z M145.22499999999997 21.16 c0 3.72 -2.04 6.96 -5.08 8.6 l5.08 10.24 l-1.32 0 l-4.84 -9.76 c-1.04 0.44 -2.2 0.68 -3.4 0.68 l-0.2 0 l0 9.08 l-1.16 0 l0 -28.6 l1.36 0 c5.28 0 9.56 4.36 9.56 9.76 z M135.46499999999997 12.559999999999999 l0 17.2 l0.2 0 c4.64 0 8.4 -3.88 8.4 -8.6 c0 -4.76 -3.76 -8.6 -8.4 -8.6 l-0.2 0 z M163.26 40 l-1.12 -4.52 l-10.96 0 l-1.12 4.52 l-1.2 0 l7.08 -28.6 l1.44 0 l7.08 28.6 l-1.2 0 z M151.45999999999998 34.28 l10.4 0 l-5.2 -20.88 z M169.855 11.399999999999999 c5.28 0 9.56 4.36 9.56 9.76 c0 5.36 -4.28 9.76 -9.56 9.76 l-0.2 0 l0 9.08 l-1.16 0 l0 -28.6 l1.36 0 z M169.855 29.759999999999998 c4.64 0 8.4 -3.88 8.4 -8.6 c0 -4.76 -3.76 -8.6 -8.4 -8.6 l-0.2 0 l0 17.2 l0.2 0 z M189.20999999999998 12.600000000000001 l-4.6 0 l0 7.88 l4.6 0 l0 1.2 l-4.6 0 l0 17.12 l4.6 0 l0 1.2 l-5.76 0 l0 -28.6 l5.76 0 l0 1.2 z M202.64499999999998 11.399999999999999 l0 1.16 l-4.08 0 l0 27.44 l-1.16 0 l0 -27.44 l-4.16 0 l0 -1.16 l9.4 0 z M207.83999999999997 11.399999999999999 l0 28.6 l-1.16 0 l0 -28.6 l1.16 0 z M226.27499999999998 40 l-1.12 -4.52 l-10.96 0 l-1.12 4.52 l-1.2 0 l7.08 -28.6 l1.44 0 l7.08 28.6 l-1.2 0 z M214.47499999999997 34.28 l10.4 0 l-5.2 -20.88 z M244.62999999999997 11.399999999999999 l1.16 0 l0 28.6 l-1.16 0 l0 -5.16 c-0.2 -9.16 -4.88 -17.2 -11.96 -22.04 l0 27.2 l-1.16 0 l0 -28.6 l1.16 0 c5.72 3.64 10 9.28 11.96 15.96 l0 -15.96 z"></path></g>
			</g>
		</svg>
	