<?xml version="1.0"?>
<svg version="1.1" xmlns="http://www.w3.org/2000/svg" width="200px" height="50px" style=""><path fill="#" d="M9.599,25.85c0,0.102-0.051,0.187-0.17,0.255l-3.604,2.312l3.553,2.278c0.136,0.085,0.204,0.187,0.204,0.289c0,0.068-0.017,0.119-0.068,0.204l-0.663,1.054c-0.085,0.136-0.187,0.221-0.289,0.221c-0.085,0-0.187-0.051-0.306-0.136l-4.794-3.196c-0.153-0.102-0.238-0.221-0.238-0.459l0-0.442c0-0.221,0.119-0.357,0.289-0.459l4.93-3.179c0.102-0.068,0.204-0.102,0.272-0.102c0.085,0,0.153,0.051,0.221,0.17l0.595,1.003c0.034,0.068,0.068,0.119,0.068,0.187z M26.82,22.62c0,0.051-0.017,0.136-0.068,0.221l-3.502,6.477l0,4.471c0,0.255-0.136,0.391-0.391,0.391l-1.428,0c-0.255,0-0.391-0.136-0.391-0.425l0-4.352l-3.689-6.579c-0.034-0.068-0.051-0.119-0.051-0.17c0-0.136,0.119-0.238,0.306-0.238l1.547,0c0.306,0,0.51,0.102,0.629,0.323l2.448,4.811l0.034,0l2.414-4.777c0.136-0.272,0.272-0.357,0.595-0.357l1.224,0c0.204,0,0.323,0.068,0.323,0.204z M36.3825,30.032c0,0.408-0.136,0.493-0.561,0.493l-4.981,0c0.136,1.309,1.088,2.21,2.431,2.21c0.714,0,1.462-0.17,2.091-0.408c0.068-0.017,0.119-0.051,0.187-0.051c0.119,0,0.204,0.068,0.238,0.204l0.238,0.867c0.017,0.085,0.034,0.153,0.034,0.204c0,0.119-0.068,0.204-0.272,0.289c-0.833,0.374-1.972,0.544-2.856,0.544c-2.669,0-4.25-1.7-4.25-4.352c0-2.55,1.683-4.318,4.216-4.318c1.037,0,1.887,0.391,2.482,1.02c0.782,0.816,1.003,1.887,1.003,3.043l0,0.255z M34.3595,29.182l0-0.187c-0.034-0.884-0.544-1.7-1.581-1.7c-1.105,0-1.768,0.884-1.904,1.887l3.485,0z M45.911,26.173c0,0.051-0.017,0.102-0.034,0.17l-2.975,7.514c-0.102,0.255-0.238,0.323-0.493,0.323l-0.884,0c-0.255,0-0.425-0.068-0.51-0.306l-2.924-7.582c-0.017-0.051-0.034-0.102-0.034-0.153c0-0.136,0.085-0.204,0.306-0.204l1.496,0c0.289,0,0.425,0.119,0.493,0.34l1.292,3.961c0.17,0.51,0.323,1.071,0.425,1.445l0.017,0c0.085-0.323,0.255-0.918,0.408-1.394l1.326-3.995c0.085-0.289,0.221-0.357,0.527-0.357l1.224,0c0.221,0,0.34,0.085,0.34,0.238z M55.6095,33.84c0,0.255-0.051,0.34-0.272,0.34l-1.496,0c-0.238,0-0.289-0.068-0.289-0.34l0-4.726c0-0.918-0.255-1.598-1.275-1.598c-0.663,0-1.513,0.357-2.04,0.816l0,5.508c0,0.255-0.068,0.34-0.323,0.34l-1.462,0c-0.204,0-0.272-0.085-0.272-0.306l0-11.237c0-0.306,0.136-0.391,0.374-0.425l1.173-0.153c0.068-0.017,0.153-0.017,0.221-0.017c0.187,0,0.289,0.085,0.289,0.323l0,4.267c0.714-0.595,1.785-0.918,2.686-0.918c1.904,0,2.686,1.207,2.686,3.043l0,5.083z M65.971,30.032c0,0.408-0.136,0.493-0.561,0.493l-4.981,0c0.136,1.309,1.088,2.21,2.431,2.21c0.714,0,1.462-0.17,2.091-0.408c0.068-0.017,0.119-0.051,0.187-0.051c0.119,0,0.204,0.068,0.238,0.204l0.238,0.867c0.017,0.085,0.034,0.153,0.034,0.204c0,0.119-0.068,0.204-0.272,0.289c-0.833,0.374-1.972,0.544-2.856,0.544c-2.669,0-4.25-1.7-4.25-4.352c0-2.55,1.683-4.318,4.216-4.318c1.037,0,1.887,0.391,2.482,1.02c0.782,0.816,1.003,1.887,1.003,3.043l0,0.255z M63.948,29.182l0-0.187c-0.034-0.884-0.544-1.7-1.581-1.7c-1.105,0-1.768,0.884-1.904,1.887l3.485,0z M75.9245,33.738c0,0.289-0.102,0.442-0.408,0.442l-1.224,0c-0.306,0-0.408-0.153-0.408-0.442l0-4.624c0-0.935-0.255-1.598-1.292-1.598c-0.663,0-1.479,0.357-2.006,0.816l0,5.423c0,0.289-0.119,0.425-0.408,0.425l-1.241,0c-0.255,0-0.408-0.136-0.408-0.408l0-7.412c0-0.272,0.119-0.425,0.425-0.425l1.105,0c0.238,0,0.391,0.068,0.408,0.323l0.017,0.442c0.782-0.629,1.768-0.986,2.754-0.986c1.904,0,2.686,1.19,2.686,3.043l0,4.981z M81.373,23.776c0,0.663-0.578,1.071-1.139,1.071s-1.156-0.374-1.156-1.054s0.561-1.088,1.156-1.088c0.578,0,1.139,0.391,1.139,1.071z M81.271,33.755c0,0.306-0.136,0.425-0.425,0.425l-1.19,0c-0.306,0-0.442-0.119-0.442-0.425l0-7.429c0-0.289,0.17-0.391,0.442-0.391l1.19,0c0.272,0,0.425,0.085,0.425,0.391l0,7.429z M86.8215,23.776c0,0.663-0.578,1.071-1.139,1.071s-1.156-0.374-1.156-1.054s0.561-1.088,1.156-1.088c0.578,0,1.139,0.391,1.139,1.071z M86.7195,33.755c0,0.306-0.136,0.425-0.425,0.425l-1.19,0c-0.306,0-0.442-0.119-0.442-0.425l0-7.429c0-0.289,0.17-0.391,0.442-0.391l1.19,0c0.272,0,0.425,0.085,0.425,0.391l0,7.429z M104.8245,33.908c0,0.17-0.085,0.272-0.306,0.272l-1.513,0c-0.357,0-0.476-0.136-0.578-0.408l-0.884-2.499l-4.301,0l-0.884,2.55c-0.068,0.221-0.187,0.357-0.459,0.357l-1.513,0c-0.17,0-0.238-0.085-0.238-0.221c0-0.051,0-0.119,0.034-0.187l4.148-11.016c0.085-0.204,0.204-0.34,0.459-0.34l1.36,0c0.255,0,0.408,0.119,0.476,0.306l4.165,10.965c0.034,0.085,0.034,0.153,0.034,0.221z M100.9655,29.624l-1.207-3.587c-0.153-0.476-0.255-0.833-0.34-1.105l-0.034,0c-0.085,0.289-0.187,0.646-0.357,1.122l-1.207,3.57l3.145,0z M109.338,23.776c0,0.663-0.578,1.071-1.139,1.071s-1.156-0.374-1.156-1.054s0.561-1.088,1.156-1.088c0.578,0,1.139,0.391,1.139,1.071z M109.236,33.755c0,0.306-0.136,0.425-0.425,0.425l-1.19,0c-0.306,0-0.442-0.119-0.442-0.425l0-7.429c0-0.289,0.17-0.391,0.442-0.391l1.19,0c0.272,0,0.425,0.085,0.425,0.391l0,7.429z M117.1495,26.003c0,0.051,0,0.102-0.017,0.153l-0.187,1.207c-0.017,0.153-0.102,0.221-0.238,0.221l-0.068,0c-0.136-0.034-0.306-0.051-0.459-0.051c-0.578,0-1.207,0.306-1.632,0.816l0,5.406c0,0.272-0.119,0.425-0.408,0.425l-1.241,0c-0.272,0-0.408-0.136-0.408-0.425l0-5.304l0-2.091c0-0.34,0.17-0.425,0.425-0.425l1.088,0c0.272,0,0.425,0.085,0.425,0.323l0.017,0.544c0.527-0.663,1.105-1.088,2.057-1.088c0.136,0,0.323,0.034,0.476,0.068c0.119,0.034,0.17,0.085,0.17,0.221z M127.375,33.857c0,0.204-0.136,0.323-0.34,0.323l-0.816,0c-0.884,0-1.275-0.425-1.394-1.003l-0.034,0c-0.425,0.629-1.53,1.207-2.465,1.207c-2.397,0-3.485-1.972-3.485-4.182c0-2.941,1.768-4.488,3.672-4.488c0.901,0,1.751,0.408,2.176,0.986l0.034-0.459c0.017-0.187,0.153-0.306,0.357-0.306l1.19,0c0.221,0,0.357,0.119,0.357,0.374l0,5.899c0,0.238,0.034,0.408,0.102,0.493c0.051,0.051,0.119,0.068,0.204,0.068l0.136,0c0.204,0,0.306,0.068,0.306,0.289l0,0.799z M124.57,31.545l0-3.281c-0.34-0.493-1.037-0.867-1.683-0.867c-1.037,0-1.921,0.884-1.921,2.669c0,1.428,0.544,2.635,1.802,2.635c0.833,0,1.547-0.629,1.802-1.156z M137.6855,29.947c0,1.292-0.391,2.465-1.105,3.298c-0.629,0.714-1.513,1.156-2.618,1.156c-0.782,0-1.564-0.289-2.057-0.799l0,3.808c0,0.34-0.153,0.442-0.442,0.442l-1.19,0c-0.272,0-0.408-0.153-0.408-0.442l0-11.084c0-0.289,0.136-0.391,0.408-0.391l1.02,0c0.289,0,0.442,0.068,0.459,0.323l0.017,0.459c0.493-0.561,1.462-0.986,2.38-0.986c1.122,0,1.904,0.425,2.465,1.037c0.731,0.799,1.071,1.989,1.071,3.179z M135.5435,30.049c0-0.799-0.153-1.496-0.493-1.972c-0.323-0.459-0.799-0.697-1.394-0.697c-0.629,0-1.411,0.408-1.751,0.833l0,3.706c0.34,0.459,1.02,0.833,1.666,0.833c0.595,0,1.071-0.272,1.36-0.629c0.425-0.527,0.612-1.241,0.612-2.074z M147.554,30.032c0,0.408-0.136,0.493-0.561,0.493l-4.981,0c0.136,1.309,1.088,2.21,2.431,2.21c0.714,0,1.462-0.17,2.091-0.408c0.068-0.017,0.119-0.051,0.187-0.051c0.119,0,0.204,0.068,0.238,0.204l0.238,0.867c0.017,0.085,0.034,0.153,0.034,0.204c0,0.119-0.068,0.204-0.272,0.289c-0.833,0.374-1.972,0.544-2.856,0.544c-2.669,0-4.25-1.7-4.25-4.352c0-2.55,1.683-4.318,4.216-4.318c1.037,0,1.887,0.391,2.482,1.02c0.782,0.816,1.003,1.887,1.003,3.043l0,0.255z M145.531,29.182l0-0.187c-0.034-0.884-0.544-1.7-1.581-1.7c-1.105,0-1.768,0.884-1.904,1.887l3.485,0z M155.2465,33.67c0,0.17-0.085,0.255-0.255,0.323c-0.527,0.221-1.224,0.391-1.904,0.391c-0.867,0-1.615-0.221-2.04-0.714c-0.527-0.595-0.544-1.292-0.544-2.533l0-3.791l-0.799,0c-0.323,0-0.374-0.068-0.374-0.425l0-0.646c0-0.204,0.102-0.34,0.306-0.34l0.867,0l0-1.853c0-0.289,0.153-0.374,0.425-0.408l1.224-0.153l0.085,0c0.221,0,0.323,0.119,0.323,0.374l0,2.04l1.921,0c0.204,0,0.323,0.068,0.323,0.289l0,0.799c0,0.204-0.136,0.323-0.34,0.323l-1.904,0l0,3.893c0,0.51,0.034,0.884,0.221,1.156c0.153,0.221,0.391,0.357,0.799,0.357c0.425,0,0.782-0.102,1.088-0.204c0.068-0.017,0.119-0.034,0.17-0.034c0.119,0,0.187,0.068,0.221,0.204l0.17,0.85c0.017,0.051,0.017,0.068,0.017,0.102z M159.879,23.776c0,0.663-0.578,1.071-1.139,1.071s-1.156-0.374-1.156-1.054s0.561-1.088,1.156-1.088c0.578,0,1.139,0.391,1.139,1.071z M159.777,33.755c0,0.306-0.136,0.425-0.425,0.425l-1.19,0c-0.306,0-0.442-0.119-0.442-0.425l0-7.429c0-0.289,0.17-0.391,0.442-0.391l1.19,0c0.272,0,0.425,0.085,0.425,0.391l0,7.429z M171.0395,33.857c0,0.204-0.136,0.323-0.34,0.323l-0.816,0c-0.884,0-1.275-0.425-1.394-1.003l-0.034,0c-0.425,0.629-1.53,1.207-2.465,1.207c-2.397,0-3.485-1.972-3.485-4.182c0-2.941,1.768-4.488,3.672-4.488c0.901,0,1.751,0.408,2.176,0.986l0.034-0.459c0.017-0.187,0.153-0.306,0.357-0.306l1.19,0c0.221,0,0.357,0.119,0.357,0.374l0,5.899c0,0.238,0.034,0.408,0.102,0.493c0.051,0.051,0.119,0.068,0.204,0.068l0.136,0c0.204,0,0.306,0.068,0.306,0.289l0,0.799z M168.2345,31.545l0-3.281c-0.34-0.493-1.037-0.867-1.683-0.867c-1.037,0-1.921,0.884-1.921,2.669c0,1.428,0.544,2.635,1.802,2.635c0.833,0,1.547-0.629,1.802-1.156z M180.925,33.738c0,0.289-0.102,0.442-0.408,0.442l-1.224,0c-0.306,0-0.408-0.153-0.408-0.442l0-4.624c0-0.935-0.255-1.598-1.292-1.598c-0.663,0-1.479,0.357-2.006,0.816l0,5.423c0,0.289-0.119,0.425-0.408,0.425l-1.241,0c-0.255,0-0.408-0.136-0.408-0.408l0-7.412c0-0.272,0.119-0.425,0.425-0.425l1.105,0c0.238,0,0.391,0.068,0.408,0.323l0.017,0.442c0.782-0.629,1.768-0.986,2.754-0.986c1.904,0,2.686,1.19,2.686,3.043l0,4.981z M195.698,28.689c0,0.221-0.136,0.357-0.306,0.459l-4.913,3.179c-0.119,0.068-0.204,0.119-0.272,0.119c-0.085,0-0.17-0.051-0.238-0.17l-0.578-1.003c-0.034-0.068-0.068-0.136-0.068-0.204c0-0.085,0.051-0.187,0.17-0.255l3.587-2.295l-3.536-2.295c-0.136-0.085-0.204-0.17-0.204-0.272c0-0.068,0.017-0.136,0.068-0.204l0.646-1.071c0.085-0.153,0.187-0.221,0.289-0.221c0.085,0,0.187,0.034,0.306,0.119l4.794,3.23c0.153,0.102,0.255,0.204,0.255,0.442l0,0.442z"/><path fill="#" d=""/></svg>
